<svg xmlns="http://www.w3.org/2000/svg" version="1.2" viewBox="24.12 15.32 527.4 877.95">
    <title>amber</title>
    <path id="Warstwa 1" class="s0" fill="currentColor" d="m93.5 893c0 0-60.2-158.1-67.5-255-7.3-96.9 8.5-251.8 15.4-256.1 2.8-1.6 75.5-4.2 160-47.6 31.9 29.5 89 81.3 89 81.3 0 0-108.7 85.7-145.5 148.8-37.8 64.9-22.7 338.6-51.4 328.6zm62.4-6.9c-12.2-15.3 2.6-177.8 7-232.2 2.8-35.2 21.2-75.3 46.8-108.1 26.9-34.5 63.5-59.7 81-75 25.5-22.2 37.9-26.4 37.9-26.4 0 0 77.7 53 119.3 54.9 42.3 1.9 88.2-31.5 93-13.8-13.8 46.6-67.6 248.4-165.9 314.5-98.3 66.1-211.3 96-219.1 86.1zm78.7-578.7c0 0 60.6-70.7 77.1-173 15.7-73.3 16.6-104.1 20.8-107.6 4.2-3.4 8.2 0.4 57.5 42.2 49.3 41.8 57.2 86.7 83 113 25.8 26.3 62.3 35.6 74.9 145.3 10.8 93.7-4.3 94.2-22.6 110.4-15.3 13.6-58.6 28.7-84.8 21-26.2-7.6-117.6-52.9-205.9-151.3zm-144.6-280.4c6.9-6.3 204.6-15.5 210-10 5.4 5.5-35.4 233.8-110.5 276.2-52.6 35-131.4 49.9-149.9 44-4.7-5.4 43.5-303.9 50.4-310.2z"/>
</svg>
